<?xml version="1.0" standalone="no"?>
<!DOCTYPE svg PUBLIC "-//W3C//DTD SVG 20010904//EN"
 "http://www.w3.org/TR/2001/REC-SVG-20010904/DTD/svg10.dtd">
<svg version="1.0" xmlns="http://www.w3.org/2000/svg"
 width="900.000000pt" height="900.000000pt" viewBox="0 0 900.000000 900.000000"
 preserveAspectRatio="xMidYMid meet">

<g transform="translate(0.000000,900.000000) scale(0.100000,-0.100000)"
fill="#2f80ed" stroke="none">
<path d="M4330 8259 c-41 -11 -111 -39 -155 -61 -78 -40 -107 -68 -1251 -1212
-1033 -1032 -1176 -1179 -1209 -1239 -130 -237 -117 -519 34 -734 127 -180
311 -281 532 -291 163 -7 293 29 427 119 26 18 284 269 575 558 l527 526 0
-2288 c0 -2565 -6 -2367 75 -2532 123 -252 374 -398 659 -383 284 16 521 205
618 493 l23 70 3 2320 2 2319 528 -525 c290 -290 547 -540 572 -556 127 -85
250 -123 399 -123 379 0 685 307 683 685 0 115 -22 208 -74 315 l-41 85 -1176
1176 c-1097 1096 -1181 1178 -1247 1212 -118 61 -185 78 -314 83 -94 3 -128 0
-190 -17z"/>
</g>
</svg>
